<svg xmlns="http://www.w3.org/2000/svg" height="24px" viewBox="0 0 24 24" width="24px" fill="#3b3b3b">
  <g><rect fill="none" height="24" width="24"/></g>
  <g>
    <path d="M10.59 14.59L9.17 16l-1.42-1.41L7 16H3v1h4v3h1v-3h4v-1H7l.75-.75L10.59 14.59zM21.49 19.47c-.15-.22-.41-.47-.75-.65V18h-.25c-.34.18-.6.43-.75.65-.29.43-.53.9-.61 1.53h-1.14c-.08-.63-.32-1.1-.61-1.53-.15-.22-.41-.47-.75-.65V18h-.25c-.34.18-.6.43-.75.65-.29.43-.53.9-.61 1.53H10.5c-.08-.63-.32-1.1-.61-1.53-.15-.22-.41-.47-.75-.65V18h-.25c-.34.18-.6.43-.75.65-.29.43-.53.9-.61 1.53H6.5c-.08-.63-.32-1.1-.61-1.53-.15-.22-.41-.47-.75-.65V18h-.25c-.34.18-.6.43-.75.65-.29.43-.53.9-.61 1.53h-1.14c-.08-.63-.32-1.1-.61-1.53-.15-.22-.41-.47-.75-.65V18h-.25c-.34.18-.6.43-.75.65-.29.43-.53.9-.61 1.53H1.5c-.08-.63-.32-1.1-.61-1.53-.15-.22-.41-.47-.75-.65V18H0v2h.25c.09.63.32 1.1.61 1.53.15.22.41.47.75.65V23h1.14v-2.35c.34-.18.6-.43.75-.65.29-.43.53-.9.61-1.53H3.5c.08.63.32 1.1.61 1.53.15.22.41.47.75.65V23h1.14v-2.35c.34-.18.6-.43.75-.65.29-.43.53-.9.61-1.53H8.5c.08.63.32 1.1.61 1.53.15.22.41.47.75.65V23h1.14v-2.35c.34-.18.6-.43.75-.65.29-.43.53-.9.61-1.53H13.5c.08.63.32 1.1.61 1.53.15.22.41.47.75.65V23h1.14v-2.35c.34-.18.6-.43.75-.65.29-.43.53-.9.61-1.53H17.5c.08.63.32 1.1.61 1.53.15.22.41.47.75.65V23h1.14v-2.35c.34-.18.6-.43.75-.65.29-.43.53-.9.61-1.53h.25v-1h-.25c-.09-.63-.32-1.1-.61-1.53z"/>
  </g>
</svg>
